<svg width="220" height="168" xmlns="http://www.w3.org/2000/svg" aria-hidden="true" focusable="false"><g fill="none"><path d="M219.92 98.271a24.423 24.423 0 1 0-46.88 9.615l-.072-.079a24.444 24.444 0 0 0 4.448 6.883l.017.019a24.349 24.349 0 0 0 17.681 7.98l-.825 44.825h2.55l-.517-29.585 3.689-1.941-.563-1.07-3.15 1.659-.241-13.89c13.266-.304 23.862-11.146 23.862-24.416Zm-72.489-11.903a28.621 28.621 0 1 0-54.938 11.268l-.084-.093a28.647 28.647 0 0 0 5.213 8.066l.02.022a28.534 28.534 0 0 0 20.72 9.353l-.967 52.53h2.988l-.605-34.67 4.322-2.276-.66-1.253-3.69 1.943-.284-16.277c15.548-.357 27.965-13.062 27.965-28.613ZM65.222 75.171A32.57 32.57 0 1 0 2.703 87.994c-.031-.036-.064-.07-.096-.106a32.6 32.6 0 0 0 5.932 9.18l.022.024c.2.218.402.435.608.648a32.472 32.472 0 0 0 22.972 9.995l-1.1 59.78h3.4l-.688-39.456 4.918-2.59-.75-1.424-4.2 2.21-.323-18.523c17.692-.405 31.824-14.864 31.824-32.56Z" fill="#DEDEE0"/><circle fill="#FBA" cx="187.467" cy="21.3" r="21.3"/><circle fill="#43AA8B" cx="60.837" cy="46.482" r="42.69"/><path d="M29.316 17.968c-8.225 19.239-1.295 41.603 16.366 52.82 17.661 11.218 40.85 7.984 54.768-7.638a42.694 42.694 0 1 1-71.134-45.182Z" fill="#000" opacity=".2"/><path fill="#000" d="M60.954 46.481h.117l2.111 121.033h-4.456z"/><path fill="#000" d="m67.744 110.539.983 1.868-7.057 3.715-.983-1.868zm58.388 55.843s.154-3.227 3.312-2.852"/><circle fill="#FE6" cx="125.24" cy="161.731" r="1.58"/><path fill="#3F3D56" d="M124.983 164.392h1v3.123h-1zM16.62 165.936s.154-3.227 3.311-2.852"/><circle fill="#FE6" cx="15.727" cy="161.284" r="1.58"/><path fill="#3F3D56" d="M15.47 163.946h1v3.123h-1zm27.022 2.213s.154-3.227 3.312-2.852"/><circle fill="#FE6" cx="41.6" cy="161.508" r="1.58"/><path fill="#3F3D56" d="M41.343 164.169h1v3.123h-1z"/><path d="m111.299 20.637 3.17-2.535c-2.463-.272-3.474 1.071-3.889 2.134-1.923-.799-4.018.248-4.018.248l6.343 2.303a4.8 4.8 0 0 0-1.606-2.15Zm48.208 25.826 3.17-2.536c-2.463-.271-3.475 1.072-3.889 2.135-1.924-.8-4.018.248-4.018.248l6.342 2.302a4.8 4.8 0 0 0-1.605-2.15ZM107.511 68.5l3.17-2.535c-2.462-.272-3.474 1.071-3.888 2.134-1.924-.798-4.018.248-4.018.248l6.342 2.303a4.8 4.8 0 0 0-1.606-2.15Z" fill="#000"/><path d="M89.005 153.078s2.482 7.271 1.418 9.931l3.192 2.837 1.951-2.482s-2.128-2.128-1.95-3.724c.177-1.596.354-7.271.354-7.271l-4.965.71Z" fill="#FFB9B9"/><path d="m100.885 167.264-.41.239H89.468a.58.58 0 0 1-.286-.593c.052-.264.183-.799.346-1.415.386-1.456.953-3.363 1.075-3.16a.002.002 0 0 1 .002.002c.172.317.527 1.735 1.415 1.56.887-.18 2.306-.534 2.306-.534s-.507-1.137-.023-1.597a.678.678 0 0 1 .377-.176c1.064-.176 1.064 1.419 1.064 1.419l3.901 2.127c.336.093.665.214.982.36.791.37 1.574 1.003.258 1.768Z" fill="#2F2E41"/><path d="m81.911 150.418-4.61 5.498-1.242 2.837 1.596 1.241 1.419-.532s1.241-3.192 2.483-3.724c1.24-.532 4.256-4.079 4.256-4.079l-3.902-1.24Z" fill="#FFB9B9"/><path d="m91.576 146.2-2.351 4.358-1.685 3.121c-.54.321-1.257.316-2.03.126a7.777 7.777 0 0 1-1.058-.353c-2.11-.863-4.25-2.578-4.25-2.578l4.05-5.061 1.323-1.651.314-.394 1.513.647 2.669 1.14 1.505.644Z" fill="#2F2E41"/><path d="m81.081 108.56-1.878 7.704 1.934 9.885s.047 4.041 1.819 3.735c1.772-.307-.085-4.383-.085-4.383l-.867-8.105 2.771-8.007a1.471 1.471 0 0 0-.709-1.742c-1.097-.67-2.656-.194-2.985.912Zm6.594-6.644-1.596 4.966-3.015-1.596s1.241-3.547 1.241-4.079c0-.532 3.37.71 3.37.71Z" fill="#FFB9B9"/><circle fill="#FFB9B9" cx="86.433" cy="100.143" r="3.724"/><path d="m87.409 108.034-.71-.709-.177-.887s-2.305-3.014-4.256-1.95c-.61.332-1.063 1.098-1.4 1.993a9.683 9.683 0 0 0 .224 7.203l3.127 7.296 7.093-.71-1.241-4.61s1.241-2.837-1.064-4.788l-1.596-2.838Z" fill="#FE6"/><path d="m91.576 146.2-2.351 4.358-1.685 3.121c-.54.321-1.257.316-2.03.126-.135-.897.67-5.64.037-9.505l.028-.138.314-.394 1.513.647 2.669 1.14 1.505.644Z" fill="#000" opacity=".3"/><path d="M91.576 119.827s-4.61-2.837-7.803.71l.178 1.064s-2.66 3.015-1.064 9.399c1.596 6.384 4.078 23.054 4.078 23.054s5.852.354 8.513-1.597c0 0-.887-21.99-3.902-24.117v-8.513Z" fill="#2F2E41"/><path d="m81.962 109.95 5.003 6.153 9.045 4.434s3.248 2.404 4.074.807c.827-1.597-3.542-2.58-3.542-2.58l-6.982-4.208-4.705-7.047a1.471 1.471 0 0 0-1.817-.488c-1.197.47-1.759 2-1.076 2.93Z" fill="#FFB9B9"/><path d="M78.647 159.073s1.087-1.367 1.736-.506c.65.861-.766 1.6-.766 1.6l-.082 4.443s.772 3.397-1.313 2.085c-2.085-1.313-2.167-1.47-2.577-2.256-.41-.787-1.257-3.945-1.989-4.963-.731-1.019-1.4-3.07-.533-3.323.869-.252 4.915-1.153 4.714-.853-.202.3-1.296 1.27-.728 1.975a64.05 64.05 0 0 0 1.538 1.798Zm9.737-62.109v-.013a5.143 5.143 0 1 0-5.143 5.143c.12 0 .592.894.71.886.007-2.714 1.763-5.833 4.433-6.016Z" fill="#2F2E41"/><circle fill="#2F2E41" cx="77.744" cy="93.049" r="3.369"/><path d="M77.59 87.945a3.365 3.365 0 0 1 .96 6.596 3.367 3.367 0 1 0-.96-6.596Zm7.957 7.942h1.773a3.192 3.192 0 0 1 3.192 3.192h-4.965v-3.192Z" fill="#2F2E41"/><path d="M169.374 167.553s.154-3.227 3.312-2.852m-32.976 2.852s.154-3.227 3.311-2.852m-111.486 2.852s.155-3.227 3.312-2.852m147.909 2.852s.154-3.227 3.312-2.852m-9.557 2.852s.154-3.227 3.312-2.852m-16.194 2.852s-.154-3.227-3.312-2.852m-47.987 2.852s-.154-3.227-3.312-2.852m-39.289 2.852s-.154-3.227-3.312-2.852m-41.965 2.852s-.154-3.227-3.312-2.852m175.053 2.852s-.154-3.227-3.312-2.852" fill="#000"/><path d="M177.011 167.777s-.154-3.228-3.311-2.853" fill="#000"/><path fill="#000" d="M0 167.132h220v1H0z"/></g></svg>